<?xml version="1.0" standalone="no"?>
<!DOCTYPE svg PUBLIC "-//W3C//DTD SVG 20010904//EN"
 "http://www.w3.org/TR/2001/REC-SVG-20010904/DTD/svg10.dtd">
<svg version="1.0" xmlns="http://www.w3.org/2000/svg"
 width="940.000000pt" height="940.000000pt" viewBox="0 0 940.000000 940.000000"
 preserveAspectRatio="xMidYMid meet">
<metadata>
Created by potrace 1.14, written by Peter Selinger 2001-2017
</metadata>
<g transform="translate(0.000000,940.000000) scale(0.100000,-0.100000)"
fill="#000000" stroke="none">
<path d="M4396 9389 c-1388 -89 -2675 -800 -3502 -1935 -754 -1037 -1052
-2376 -808 -3636 228 -1180 887 -2215 1860 -2924 1037 -754 2376 -1052 3636
-808 1180 228 2215 887 2924 1860 754 1037 1052 2376 808 3636 -228 1180 -887
2215 -1860 2924 -875 636 -1969 952 -3058 883z m783 -174 c1538 -170 2871
-1088 3565 -2455 253 -498 408 -1020 473 -1592 13 -113 17 -235 17 -468 0
-233 -4 -355 -17 -468 -139 -1232 -734 -2319 -1682 -3077 -677 -541 -1482
-872 -2367 -972 -214 -24 -722 -24 -936 0 -1231 139 -2320 734 -3077 1682
-541 677 -872 1482 -972 2367 -24 214 -24 722 0 936 65 572 220 1094 473 1592
435 856 1128 1549 1984 1984 557 283 1136 442 1790 490 121 9 611 -3 749 -19z"/>
<path d="M4455 9074 c-661 -50 -1184 -192 -1730 -468 -432 -219 -780 -471
-1120 -811 -340 -340 -592 -688 -811 -1120 -244 -484 -384 -954 -450 -1520
-25 -210 -25 -700 0 -910 66 -566 206 -1036 450 -1520 219 -432 471 -780 811
-1120 340 -340 688 -592 1120 -811 484 -244 954 -384 1520 -450 210 -25 700
-25 910 0 566 66 1036 206 1520 450 432 219 780 471 1120 811 340 340 592 688
811 1120 244 484 384 954 450 1520 25 210 25 700 0 910 -66 566 -206 1036
-450 1520 -219 432 -471 780 -811 1120 -340 340 -688 592 -1120 811 -482 244
-962 386 -1515 449 -127 15 -596 27 -705 19z m-285 -1833 c0 -6 -5 -13 -10
-16 -6 -4 -24 -32 -41 -63 -17 -31 -61 -111 -99 -177 -38 -66 -85 -149 -105
-185 -19 -36 -51 -92 -70 -125 -19 -33 -48 -85 -65 -115 -17 -30 -46 -82 -65
-115 -36 -63 -70 -123 -136 -240 -22 -38 -42 -78 -45 -87 -11 -33 -32 -18 -64
45 -17 34 -49 91 -70 127 -21 36 -51 88 -67 116 -15 29 -45 83 -66 120 -20 38
-53 96 -72 129 -19 33 -48 85 -65 115 -17 30 -62 109 -100 175 -38 66 -83 147
-101 180 -17 33 -40 72 -50 87 -11 14 -19 29 -19 32 0 3 295 6 655 6 403 0
655 -4 655 -9z m-366 -1392 c324 -58 566 -151 791 -304 53 -36 100 -65 105
-65 5 0 52 29 105 65 225 153 467 246 791 304 73 13 429 15 487 2 23 -5 69
-14 102 -21 165 -31 301 -75 448 -144 540 -253 928 -755 1037 -1341 7 -33 16
-79 21 -102 12 -54 12 -415 0 -462 -5 -20 -15 -67 -21 -106 -81 -474 -377
-925 -790 -1202 -204 -137 -467 -244 -695 -283 -38 -6 -89 -16 -112 -21 -55
-12 -415 -12 -462 0 -20 5 -67 15 -106 21 -230 40 -491 146 -698 285 -53 36
-102 65 -107 65 -5 0 -54 -29 -107 -65 -207 -139 -468 -245 -698 -285 -38 -6
-86 -16 -106 -21 -47 -12 -407 -12 -462 0 -23 5 -73 15 -112 21 -228 39 -491
146 -695 283 -413 277 -709 728 -790 1202 -6 39 -16 86 -21 106 -12 47 -12
408 0 462 5 23 14 69 21 102 43 236 146 492 276 685 282 422 723 714 1209 800
39 7 84 16 100 20 46 12 421 11 489 -1z"/>
<path d="M3426 5529 c-366 -35 -689 -184 -940 -433 -162 -160 -266 -313 -347
-511 -175 -431 -145 -922 83 -1322 249 -437 665 -709 1178 -770 205 -24 406
-3 626 68 141 44 359 154 418 209 4 5 -21 46 -57 92 -186 239 -317 523 -367
798 -6 36 -16 84 -21 107 -12 54 -12 432 0 486 5 23 15 71 22 107 50 275 168
537 345 773 41 53 74 103 74 110 0 7 -33 32 -72 57 -153 94 -320 162 -489 198
-87 19 -297 44 -344 41 -11 -1 -60 -6 -109 -10z"/>
<path d="M5715 5529 c-183 -17 -375 -70 -535 -148 -105 -51 -220 -123 -220
-138 0 -7 33 -57 74 -110 177 -236 295 -498 345 -773 7 -36 17 -84 22 -107 12
-54 12 -432 0 -486 -5 -23 -15 -71 -21 -107 -27 -149 -74 -288 -150 -447 -66
-138 -123 -230 -217 -351 -36 -46 -61 -87 -57 -92 25 -23 150 -97 229 -135 97
-46 248 -98 355 -120 436 -92 912 24 1265 308 467 375 671 992 520 1571 -69
267 -204 498 -411 702 -207 206 -492 357 -770 409 -80 15 -282 36 -319 34 -11
-1 -60 -6 -110 -10z"/>
<path d="M4649 4958 c-156 -197 -267 -445 -310 -699 -29 -170 -23 -422 14
-579 31 -130 86 -281 139 -380 46 -86 155 -246 187 -274 21 -19 21 -19 42 0
32 28 141 188 187 274 53 99 108 250 139 380 37 157 43 409 14 579 -27 159
-76 305 -152 451 -58 112 -181 290 -206 298 -6 2 -31 -21 -54 -50z"/>
</g>
</svg>
